<svg
  xmlns="http://www.w3.org/2000/svg"
  viewBox="0 0 24 24"
  width="100"
  height="100"
  fill="currentColor"
>
  <path d="M3 11V15C3 16.1 3.9 17 5 17H6C6 18.66 7.34 20 9 20C10.66 20 12 18.66 12 17H15C15 18.66 16.34 20 18 20C19.66 20 21 18.66 21 17H21.5C22.33 17 23 16.33 23 15.5V12C23 10.89 22.11 10 21 10L17.65 5.35C17.27 4.9 16.68 4.64 16.05 4.64H5C3.9 4.64 3 5.54 3 6.64V11ZM5 6.64H16.05L19 10H5V6.64ZM5 12H21V15.5H20C20 16.33 19.33 17 18.5 17C17.67 17 17 16.33 17 15.5H9C9 16.33 8.33 17 7.5 17C6.67 17 6 16.33 6 15.5H5V12Z"/>
</svg>
